# xmcd
#
# Track frame offsets: 
#        150
#        9919
#        22723
#        34211
#        47171
#        57929
#        67274
#        77457
#        90194
#        100971
#        115292
#        126265
#        137041
#        147823
#        158185
#        168349
#        180911
#        191082
#        202848
#        211862
#        223574
#        233828
#        245529
#        255374
#
# Disc length: 3622 seconds
#
# Revision: 3
# Processed by: cddbd v1.5.2PL0 Copyright (c) Steve Scherf et al.
# Submitted via: ExactAudioCopyFreeDBPlugin 1.0
#
DISCID=3b0e2418
DTITLE=Dan Penn - Close To Me:  More Fame Recordings [Ace]
DYEAR=2016
DGENRE=Soul
TTITLE0=Close to Me
TTITLE1=Without a Woman
TTITLE2=Trash Man
TTITLE3=Miss Personality
TTITLE4=Love is a Wonderful Thing
TTITLE5=It Hurts
TTITLE6=Standing in the Way of a Good Thing
TTITLE7=Reaching Out for Someone
TTITLE8=I'll Take Care of You
TTITLE9=I Need You
TTITLE10=Destroyed
TTITLE11=So Many Reasons
TTITLE12=Little Girl
TTITLE13=I Love Everything About You
TTITLE14=Lovely Ladies
TTITLE15=I Dig a Big Town
TTITLE16=Diamonds
TTITLE17=She Ain't Gonna Do Right
TTITLE18=I Can't Stop (The Feeling Won't Let Me)
TTITLE19=Do You Need It
TTITLE20=You Really Know How to Hurt a Guy
TTITLE21=Live and Let Live
TTITLE22=We're Swinging
TTITLE23=Downright Uptight Good Woman
EXTD=
EXTT0=
EXTT1=
EXTT2=
EXTT3=
EXTT4=
EXTT5=
EXTT6=
EXTT7=
EXTT8=
EXTT9=
EXTT10=
EXTT11=
EXTT12=
EXTT13=
EXTT14=
EXTT15=
EXTT16=
EXTT17=
EXTT18=
EXTT19=
EXTT20=
EXTT21=
EXTT22=
EXTT23=
PLAYORDER=
